<svg id="Capa_1" enable-background="new 0 0 512 512" height="512" viewBox="0 0 512 512" width="512" xmlns="http://www.w3.org/2000/svg"><g id="XMLID_1082_"><path id="XMLID_1125_" d="m256 290c77.32 0 140-62.68 140-140s-62.68-140-140-140-140 62.68-140 140 62.68 140 140 140zm0-236c53.019 0 96 42.981 96 96s-42.981 96-96 96-96-42.981-96-96 42.981-96 96-96z" fill="#98eaf9"/><path id="XMLID_1141_" d="m323.882 82.118 31.113-31.113c-25.335-25.335-60.335-41.005-98.995-41.005v44c26.51 0 50.51 10.745 67.882 28.118z" fill="#ffcd69"/><path id="XMLID_1169_" d="m188.118 217.882-31.113 31.113c25.335 25.335 60.335 41.005 98.995 41.005v-44c-26.51 0-50.51-10.745-67.882-28.118z" fill="#ffcd69"/><path id="XMLID_1171_" d="m323.882 217.882 31.113 31.113c25.335-25.335 41.005-60.335 41.005-98.995h-44c0 26.51-10.745 50.51-28.118 67.882z" fill="#ff7d97"/><path id="XMLID_1170_" d="m188.118 82.118-31.113-31.113c-25.335 25.335-41.005 60.335-41.005 98.995h44c0-26.51 10.745-50.51 28.118-67.882z" fill="#c193dc"/><path id="XMLID_1173_" d="m256 246v44c35.829 0 71.658-13.668 98.995-41.005l-31.113-31.113c-18.745 18.745-43.313 28.118-67.882 28.118z" fill="#c193dc"/><path id="XMLID_1172_" d="m256 54v-44c-35.829 0-71.658 13.668-98.995 41.005l31.113 31.113c18.745-18.745 43.313-28.118 67.882-28.118z" fill="#d5ea79"/><g id="XMLID_1904_"><path id="XMLID_1623_" d="m285.354 472.646-29.354 29.354-29.354-29.354v-89.936l29.354-29.354 29.354 29.354z" fill="#ff7d97"/><path id="XMLID_1622_" d="m285.354 472.646-29.354 29.354-29.354-29.354v-89.936l29.354-29.354 29.354 29.354z" fill="#cbe558"/></g><path id="XMLID_1094_" d="m186.359 432.646-29.354 29.354-29.353-29.354v-87.499l29.353-29.353 29.354 29.353z" fill="#ff7d97"/><path id="XMLID_1093_" d="m186.359 432.646-29.354 29.354-29.353-29.354v-87.499l29.353-29.353 29.354 29.353z" fill="#ccf5fc"/><path id="XMLID_1090_" d="m325.641 432.646 29.353 29.354 29.354-29.354v-87.499l-29.354-29.353-29.353 29.353z" fill="#ff7d97"/><path id="XMLID_1087_" d="m325.641 432.646 29.353 29.354 29.354-29.354v-87.499l-29.354-29.353-29.353 29.353z" fill="#ccf5fc"/><g id="XMLID_276_"><path id="XMLID_673_" d="m364.995 311.651v-58.708c25.404-26.883 41.005-63.124 41.005-102.943 0-82.71-67.29-150-150-150s-150 67.29-150 150c0 39.819 15.601 76.06 41.005 102.943v58.708l-26.425 26.425c-1.875 1.875-2.929 4.418-2.929 7.071v87.499c0 2.652 1.054 5.196 2.929 7.071l29.354 29.354c1.876 1.875 4.419 2.929 7.071 2.929s5.196-1.054 7.071-2.929l29.354-29.354c1.875-1.875 2.929-4.419 2.929-7.071v-87.499c0-2.652-1.054-5.196-2.929-7.071l-26.425-26.425v-40.982c22.398 16.562 49.547 27.041 78.995 28.989v49.555l-26.425 26.425c-1.875 1.875-2.929 4.419-2.929 7.071v89.936c0 2.652 1.054 5.196 2.929 7.071l29.354 29.354c1.953 1.953 4.512 2.929 7.071 2.929s5.119-.976 7.071-2.929l29.354-29.354c3.905-3.905 3.905-10.237 0-14.143-3.905-3.905-10.237-3.905-14.143 0l-22.282 22.285-19.354-19.354v-81.651l19.354-19.354 22.283 22.283c3.905 3.905 10.237 3.905 14.143 0 3.905-3.905 3.905-10.237 0-14.143l-26.426-26.425v-49.555c29.447-1.948 56.597-12.427 78.995-28.989v40.982l-26.425 26.425c-1.875 1.875-2.929 4.419-2.929 7.071v87.499c0 2.652 1.054 5.196 2.929 7.071l29.354 29.354c1.876 1.875 4.419 2.929 7.071 2.929s5.196-1.054 7.071-2.929l29.354-29.354c1.875-1.875 2.929-4.418 2.929-7.071v-87.499c0-2.652-1.054-5.196-2.929-7.071zm-207.673-246.186 17.021 17.021c-13.198 15.934-21.825 35.781-23.868 57.514h-24.094c2.166-28.339 13.463-54.162 30.941-74.535zm228.297 74.535h-24.094c-2.043-21.733-10.67-41.58-23.868-57.514l17.021-17.021c17.478 20.373 28.775 46.196 30.941 74.535zm-30.941 94.535-17.021-17.021c13.198-15.934 21.825-35.781 23.868-57.514h24.094c-2.166 28.339-13.463 54.162-30.941 74.535zm-98.678 1.465c-47.42 0-86-38.58-86-86s38.58-86 86-86 86 38.58 86 86-38.58 86-86 86zm67.514-167.657c-15.934-13.198-35.781-21.825-57.514-23.868v-24.094c28.339 2.166 54.162 13.463 74.535 30.941zm-77.514-23.868c-21.733 2.043-41.58 10.67-57.514 23.868l-17.021-17.021c20.373-17.478 46.196-28.775 74.535-30.941zm-95.525 115.525c2.043 21.733 10.67 41.58 23.868 57.514l-17.021 17.021c-17.478-20.373-28.775-46.196-30.941-74.535zm38.011 71.657c15.934 13.198 35.781 21.825 57.514 23.868v24.094c-28.339-2.166-54.162-13.463-74.535-30.941zm77.514 23.868c21.733-2.043 41.58-10.67 57.514-23.868l17.021 17.021c-20.373 17.478-46.196 28.775-74.535 30.941zm-89.641 172.979-19.354 19.354-19.354-19.354v-79.214l19.354-19.354 19.354 19.354zm197.989 0-19.353 19.354-19.354-19.354v-79.214l19.354-19.354 19.353 19.354z"/><path id="XMLID_1137_" d="m285.35 417.71c-2.63 0-5.21 1.07-7.07 2.93s-2.93 4.441-2.93 7.07c0 2.63 1.07 5.21 2.93 7.07s4.44 2.93 7.07 2.93c2.64 0 5.211-1.07 7.07-2.93 1.87-1.86 2.93-4.44 2.93-7.07s-1.06-5.21-2.93-7.07c-1.85-1.86-4.43-2.93-7.07-2.93z"/></g></g></svg>